<svg width="20" height="21" viewBox="0 0 20 21" fill="none" xmlns="http://www.w3.org/2000/svg">
<path d="M13.0057 1.89887L11.2096 2.45142C10.4338 2.69011 10.1176 3.31428 10.365 4.1186L10.9378 5.98058C11.1853 6.78491 11.7977 7.1234 12.5735 6.88471L14.3696 6.33216C15.1455 6.09347 15.4617 5.4693 15.2142 4.66498L14.6414 2.80299C14.394 1.99867 13.7816 1.66018 13.0057 1.89887ZM14.1137 4.10923C14.1176 4.92609 13.4542 5.57387 13.1793 5.65844C12.9044 5.74302 12.0016 5.59092 11.5357 4.90235C11.4639 4.79963 11.4066 4.6786 11.3696 4.55827C11.243 4.14661 11.314 3.66025 11.6927 3.39124C11.9178 3.23185 12.2003 3.19349 12.4403 3.29989C12.5871 3.08142 12.8403 2.94806 13.1222 2.95145C13.7408 2.96221 14.1186 3.56003 14.1137 4.10923Z" fill="white"/>
<path d="M12.8658 7.83469C11.6745 8.20118 10.4014 7.49747 10.0215 6.26248L9.44283 4.3815C9.33567 4.03317 8.97308 3.83275 8.63708 3.93612L4.66614 5.15775C2.98002 5.67648 2.04606 7.50979 2.58187 9.25144L3.9399 13.6657C4.47766 15.4137 6.28255 16.4114 7.96867 15.8927L8.88504 15.6107C9.05609 15.5581 9.31109 15.6045 9.4517 15.7137L10.7558 16.6921C11.3305 17.1254 11.9903 16.9224 12.222 16.2411L12.7506 14.6988C12.818 14.5048 12.972 14.3534 13.1614 14.2951L14.0839 14.0113C15.77 13.4926 16.6979 11.6612 16.1601 9.91319L15.486 7.72188C15.3788 7.37355 15.0162 7.17313 14.6802 7.2765L12.8658 7.83469ZM7.22545 11.3031C6.88334 11.4083 6.52686 11.206 6.41969 10.8577C6.31253 10.5094 6.49366 10.1417 6.83577 10.0364C7.17177 9.93306 7.53436 10.1335 7.64152 10.4818C7.74868 10.8301 7.56756 11.1978 7.22545 11.3031ZM9.6691 10.5513C9.32699 10.6566 8.97051 10.4543 8.86335 10.1059C8.75619 9.7576 8.93731 9.3899 9.27942 9.28465C9.61542 9.18129 9.97801 9.38171 10.0852 9.73004C10.1923 10.0784 10.0112 10.4461 9.6691 10.5513Z" fill="white"/>
</svg>
