<svg width="24" height="24" viewBox="0 0 24 24" fill="none" xmlns="http://www.w3.org/2000/svg">
<path d="M1.2002 18.3424V4.86807C1.2002 4.16646 1.76655 3.6001 2.46816 3.6001H7.12584C7.62457 3.6001 8.11063 3.76071 8.50793 4.05657L10.207 5.32031C10.6085 5.61617 11.0904 5.77678 11.5891 5.77678H18.1699C18.8715 5.77678 19.4378 6.34314 19.4378 7.04475V8.00841H5.96776C5.24502 8.00841 4.60681 8.46487 4.37012 9.14958L1.2002 18.3424ZM4.77164 9.28483L1.2002 19.6357H18.5376C19.0786 19.6357 19.5604 19.2933 19.7379 18.7819L22.7303 10.109C23.0135 9.28483 22.4006 8.42683 21.53 8.42683H5.96776C5.42676 8.43106 4.94916 8.77341 4.77164 9.28483Z" fill="url(#paint0_linear_4310_9505)"/>
<defs>
<linearGradient id="paint0_linear_4310_9505" x1="1.56812" y1="3.97402" x2="18.1474" y2="20.5533" gradientUnits="userSpaceOnUse">
<stop stop-color="#FFC713"/>
<stop offset="1" stop-color="#FF8C00"/>
</linearGradient>
</defs>
</svg>
