<svg width="24" height="24" viewBox="0 0 24 24" fill="none" xmlns="http://www.w3.org/2000/svg">
<path d="M17.9697 19.6082C17.9697 20.3465 17.3707 20.9414 16.6366 20.9414H2.53332C1.79926 20.9414 1.2002 20.3465 1.2002 19.6082C1.2002 15.495 4.54988 12.1453 8.66316 12.1453H10.5025C14.62 12.1453 17.9697 15.4907 17.9697 19.6082Z" fill="#006AF5"/>
<path d="M5.35547 6.63143C5.35547 4.29424 7.24969 2.40002 9.58266 2.40002C11.9198 2.40002 13.8141 4.29424 13.8141 6.62721C13.8141 8.9644 11.9198 10.8586 9.58266 10.8586C7.24969 10.8586 5.35547 8.96862 5.35547 6.63143Z" fill="#006AF5"/>
<path d="M22.408 7.42457C21.8849 6.90145 21.0412 6.90145 20.5223 7.42457L17.5227 10.4241L16.0926 8.99395C15.5695 8.47082 14.7257 8.47082 14.2068 8.99395C13.6837 9.51707 13.6837 10.3608 14.2068 10.8797L16.6621 13.335C17.1852 13.8582 18.029 13.8582 18.5479 13.335C18.6829 13.2 22.408 9.31035 22.408 9.31035C22.9312 8.79145 22.9312 7.9477 22.408 7.42457Z" fill="#006AF5"/>
</svg>
