<svg xmlns="http://www.w3.org/2000/svg" xmlns:xlink="http://www.w3.org/1999/xlink" version="1.1" width="256" height="256" viewBox="0 0 256 256" xml:space="preserve">
<g style="stroke: none; stroke-width: 0; stroke-dasharray: none; stroke-linecap: butt; stroke-linejoin: miter; stroke-miterlimit: 10; fill: none; fill-rule: nonzero; opacity: 1;" transform="translate(1.4065934065934016 1.4065934065934016) scale(2.81 2.81)">
	<path d="M 65.456 81.712 c 0 4.57 -3.717 8.288 -8.288 8.288 h -40.7 c -4.57 0 -8.288 -3.717 -8.288 -8.288 V 24.65 c 0 -4.57 3.718 -8.288 8.288 -8.288 h 1.152 V 65.35 c 0 8.387 6.823 15.211 15.211 15.211 h 32.624 V 81.712 z" style="stroke: none; stroke-width: 1; stroke-dasharray: none; stroke-linecap: butt; stroke-linejoin: miter; stroke-miterlimit: 10; fill: rgb(0,0,0); fill-rule: nonzero; opacity: 1;" transform=" matrix(1 0 0 1 0 0) " stroke-linecap="round"/>
	<path d="M 81.819 65.35 c 0 4.57 -3.717 8.288 -8.288 8.288 h -1.152 H 32.832 c -4.57 0 -8.288 -3.717 -8.288 -8.288 V 9.439 V 8.288 c 0 -4.57 3.718 -8.288 8.288 -8.288 h 40.699 c 4.57 0 8.288 3.718 8.288 8.288 V 65.35 z" style="stroke: none; stroke-width: 1; stroke-dasharray: none; stroke-linecap: butt; stroke-linejoin: miter; stroke-miterlimit: 10; fill: rgb(0,0,0); fill-rule: nonzero; opacity: 1;" transform=" matrix(1 0 0 1 0 0) " stroke-linecap="round"/>
</g>
</svg>