<svg width="20" height="20" viewBox="0 0 20 20" fill="none" xmlns="http://www.w3.org/2000/svg">
<path d="M11.8625 15.8334C12.5833 15.8334 12.9642 16.6867 12.4833 17.2234C12.171 17.573 11.7883 17.8525 11.3603 18.0438C10.9324 18.2351 10.4688 18.3338 10 18.3334C9.53124 18.3338 9.06768 18.2351 8.63971 18.0438C8.21174 17.8525 7.82904 17.573 7.51668 17.2234C7.05668 16.7101 7.38501 15.9076 8.04501 15.8392L8.13668 15.8342L11.8625 15.8334Z" fill="#53575A"/>
<path d="M10 1.66675C11.1317 1.66675 12.0883 2.41925 12.3958 3.45091L12.4342 3.59341L12.4408 3.62925C13.3595 4.1475 14.1423 4.876 14.7252 5.75508C15.308 6.63416 15.6744 7.63881 15.7942 8.68675L15.8175 8.92591L15.8333 9.16675V11.6092L15.8508 11.7226C15.9649 12.3366 16.3047 12.8857 16.8033 13.2617L16.9425 13.3592L17.0775 13.4417C17.7942 13.8476 17.5442 14.9134 16.7633 14.9951L16.6667 15.0001H3.33333C2.47666 15.0001 2.1775 13.8634 2.9225 13.4417C3.24002 13.2621 3.51437 13.015 3.72628 12.7181C3.93819 12.4211 4.08253 12.0813 4.14916 11.7226L4.16666 11.6034L4.1675 9.12842C4.21831 8.03998 4.53513 6.98059 5.09023 6.04297C5.64534 5.10535 6.4218 4.31809 7.35166 3.75008L7.55833 3.62841L7.56666 3.59258C7.68454 3.09427 7.95245 2.64411 8.33424 2.30286C8.71602 1.96161 9.1933 1.74569 9.70166 1.68425L9.85333 1.67008L10 1.66675Z" fill="#53575A"/>
<path d="M11.8625 15.8334C12.5833 15.8334 12.9642 16.6867 12.4833 17.2234C12.171 17.573 11.7883 17.8525 11.3603 18.0438C10.9324 18.2351 10.4688 18.3338 10 18.3334C9.53124 18.3338 9.06768 18.2351 8.63971 18.0438C8.21174 17.8525 7.82904 17.573 7.51668 17.2234C7.05668 16.7101 7.38501 15.9076 8.04501 15.8392L8.13668 15.8342L11.8625 15.8334Z" stroke="#53575A"/>
<path d="M10 1.66675C11.1317 1.66675 12.0883 2.41925 12.3958 3.45091L12.4342 3.59341L12.4408 3.62925C13.3595 4.1475 14.1423 4.876 14.7252 5.75508C15.308 6.63416 15.6744 7.63881 15.7942 8.68675L15.8175 8.92591L15.8333 9.16675V11.6092L15.8508 11.7226C15.9649 12.3366 16.3047 12.8857 16.8033 13.2617L16.9425 13.3592L17.0775 13.4417C17.7942 13.8476 17.5442 14.9134 16.7633 14.9951L16.6667 15.0001H3.33333C2.47666 15.0001 2.1775 13.8634 2.9225 13.4417C3.24002 13.2621 3.51437 13.015 3.72628 12.7181C3.93819 12.4211 4.08253 12.0813 4.14916 11.7226L4.16666 11.6034L4.1675 9.12842C4.21831 8.03998 4.53513 6.98059 5.09023 6.04297C5.64534 5.10535 6.4218 4.31809 7.35166 3.75008L7.55833 3.62841L7.56666 3.59258C7.68454 3.09427 7.95245 2.64411 8.33424 2.30286C8.71602 1.96161 9.1933 1.74569 9.70166 1.68425L9.85333 1.67008L10 1.66675Z" stroke="#53575A"/>
</svg>
