<svg width="24" height="24" viewBox="0 0 24 24" fill="none" xmlns="http://www.w3.org/2000/svg">
<path fill-rule="evenodd" clip-rule="evenodd" d="M6.59585 9.70541C6.59585 9.70541 5.47438 10.8296 4.21613 12.0884C3.05088 13.2498 2.3999 14.8254 2.3999 16.4682C2.3999 18.1105 3.05088 19.6861 4.21613 20.8475C4.25989 20.8934 4.30366 20.9394 4.35289 20.9853C5.51267 22.1468 7.08822 22.7994 8.72941 22.7994C10.3761 22.7994 11.9516 22.1468 13.1114 20.9853C14.3697 19.7271 15.4966 18.6023 15.4966 18.6023C16.0273 18.0689 16.0273 17.2018 15.4966 16.6684C14.9605 16.1345 14.0961 16.1345 13.56 16.6684C13.56 16.6684 12.433 17.7927 11.1748 19.0515C10.5292 19.6997 9.64848 20.0641 8.72941 20.0641C7.81581 20.0641 6.93506 19.6997 6.28405 19.0515L6.14728 18.9136C5.50175 18.2648 5.13523 17.3851 5.13523 16.4682C5.13523 15.5508 5.50175 14.6711 6.14728 14.0223C7.40553 12.764 8.53248 11.6393 8.53248 11.6393C9.06313 11.1059 9.06313 10.2393 8.53248 9.70541C7.99635 9.17147 7.13197 9.17147 6.59585 9.70541ZM14.7362 8.53031L8.53248 14.734C7.99635 15.268 7.99635 16.1345 8.53248 16.6684C9.06313 17.2018 9.93298 17.2018 10.4636 16.6684L16.6673 10.4642C17.2035 9.93025 17.2035 9.0637 16.6673 8.53031C16.1367 7.99638 15.2668 7.99638 14.7362 8.53031ZM18.5875 15.507C18.5875 15.507 19.72 14.3752 20.9837 13.1109C22.1489 11.9495 22.7999 10.3739 22.7999 8.73108C22.7999 7.08879 22.1489 5.51325 20.9837 4.35183C20.9399 4.30588 20.8961 4.25992 20.8469 4.21397C19.6871 3.052 18.1116 2.3999 16.4704 2.3999C14.8237 2.3999 13.2482 3.052 12.0884 4.21397C10.8301 5.47167 9.70868 6.59589 9.70868 6.59589C9.17256 7.12982 9.17256 7.99638 9.70868 8.53031C10.2393 9.0637 11.1092 9.0637 11.6398 8.53031C11.6398 8.53031 12.7668 7.40609 14.025 6.14784C14.6706 5.49957 15.5513 5.13523 16.4704 5.13523C17.384 5.13523 18.2647 5.49957 18.9158 6.14784L19.0525 6.28571C19.6981 6.93452 20.0646 7.8142 20.0646 8.73108C20.0646 9.64851 19.6981 10.5282 19.0525 11.177C17.7888 12.4413 16.6564 13.5726 16.6564 13.5726C16.1203 14.1065 16.1203 14.9731 16.6564 15.507C17.187 16.0404 18.0569 16.0404 18.5875 15.507Z" fill="url(#paint0_linear_4310_9499)"/>
<defs>
<linearGradient id="paint0_linear_4310_9499" x1="5.49081" y1="20.2583" x2="20.8086" y2="4.39344" gradientUnits="userSpaceOnUse">
<stop stop-color="#0056E0"/>
<stop offset="0.01" stop-color="#0056E0"/>
<stop offset="1" stop-color="#00E5B8"/>
</linearGradient>
</defs>
</svg>
