<svg width="24" height="24" viewBox="0 0 24 24" fill="none" xmlns="http://www.w3.org/2000/svg">
<path d="M18.8867 14.5786C16.3753 13.2194 13.1687 15.1947 13.2191 18.0715C13.2223 19.1118 13.6336 20.1086 14.3633 20.8446C15.093 21.5805 16.082 21.9959 17.1144 22C21.22 21.9452 22.4852 16.463 18.8867 14.5786ZM18.8264 18.4286H17.4689V19.8C17.4675 19.8938 17.4295 19.9833 17.3632 20.0491C17.2969 20.115 17.2075 20.1519 17.1144 20.1519C17.0213 20.1519 16.932 20.115 16.8656 20.0491C16.7993 19.9833 16.7614 19.8938 16.76 19.8V18.4286H15.4025C15.3085 18.4286 15.2183 18.391 15.1518 18.324C15.0854 18.257 15.048 18.1662 15.048 18.0715C15.048 17.9767 15.0854 17.8859 15.1518 17.8189C15.2183 17.7519 15.3085 17.7143 15.4025 17.7143H16.76V16.3465C16.76 16.2517 16.7973 16.1609 16.8638 16.0939C16.9303 16.0269 17.0204 15.9893 17.1144 15.9893C17.2084 15.9893 17.2986 16.0269 17.3651 16.0939C17.4315 16.1609 17.4689 16.2517 17.4689 16.3465V17.7143H18.8264C18.9193 17.716 19.0078 17.7543 19.073 17.8211C19.1381 17.8879 19.1746 17.9778 19.1746 18.0715C19.1746 18.1651 19.1381 18.255 19.073 18.3218C19.0079 18.3886 18.9193 18.4269 18.8264 18.4286ZM18.8867 13.7894L18.8867 3.78572C18.8865 3.31217 18.6997 2.85806 18.3674 2.52321C18.0351 2.18836 17.5844 2.00017 17.1144 2H5.77222C5.30225 2.00017 4.85158 2.18836 4.51926 2.52321C4.18694 2.85806 4.00017 3.31217 4 3.78572V18.0715C4.00017 18.545 4.18694 18.9991 4.51926 19.334C4.85158 19.6688 5.30225 19.857 5.77222 19.8572H12.8646C12.6297 19.2916 12.5092 18.6845 12.5102 18.0715C12.4436 14.8306 15.9533 12.4872 18.8867 13.7894ZM7.19 6.28572H15.6967C15.7897 6.28718 15.8785 6.32545 15.9438 6.39227C16.009 6.45909 16.0456 6.5491 16.0456 6.64288C16.0456 6.73665 16.009 6.82666 15.9437 6.89348C15.8784 6.9603 15.7897 6.99856 15.6966 7.00001H7.19C7.09712 6.99828 7.00863 6.9599 6.94356 6.89311C6.87849 6.82632 6.84203 6.73646 6.84203 6.64287C6.84203 6.54927 6.87849 6.45941 6.94356 6.39262C7.00863 6.32583 7.09712 6.28745 7.19 6.28572ZM7.19 10.5714H15.6967C15.7897 10.5729 15.8785 10.6112 15.9438 10.678C16.009 10.7448 16.0456 10.8348 16.0456 10.9286C16.0456 11.0224 16.009 11.1124 15.9437 11.1792C15.8784 11.246 15.7897 11.2843 15.6966 11.2857H7.19C7.09712 11.284 7.00863 11.2456 6.94356 11.1788C6.87849 11.112 6.84203 11.0222 6.84203 10.9286C6.84203 10.835 6.87849 10.7451 6.94356 10.6783C7.00863 10.6116 7.09712 10.5732 7.19 10.5714ZM6.83555 15.2143C6.83583 15.1197 6.87327 15.029 6.93968 14.9621C7.00609 14.8952 7.09608 14.8574 7.19 14.8572H12.6272C12.7212 14.8572 12.8113 14.8948 12.8778 14.9618C12.9443 15.0287 12.9816 15.1196 12.9816 15.2143C12.9816 15.309 12.9443 15.3999 12.8778 15.4668C12.8113 15.5338 12.7212 15.5715 12.6272 15.5715H7.19C7.09608 15.5712 7.00609 15.5335 6.93968 15.4665C6.87327 15.3996 6.83583 15.3089 6.83555 15.2143Z" fill="url(#paint0_linear_4310_9452)"/>
<defs>
<linearGradient id="paint0_linear_4310_9452" x1="4.00007" y1="12" x2="20.9999" y2="12" gradientUnits="userSpaceOnUse">
<stop stop-color="#00C0FF"/>
<stop offset="1" stop-color="#5558FF"/>
</linearGradient>
</defs>
</svg>
