<svg xmlns="http://www.w3.org/2000/svg" xmlns:xlink="http://www.w3.org/1999/xlink" version="1.1" width="256" height="256" viewBox="0 0 256 256" xml:space="preserve">
<g style="stroke: none; stroke-width: 0; stroke-dasharray: none; stroke-linecap: butt; stroke-linejoin: miter; stroke-miterlimit: 10; fill: none; fill-rule: nonzero; opacity: 1;" transform="translate(1.4065934065934016 1.4065934065934016) scale(2.81 2.81)">
	<path d="M 82.739 35.789 H 64.903 c -1.932 0 -3.664 -1.192 -4.354 -2.996 l -2.201 -5.752 c -0.483 -1.262 -1.694 -2.095 -3.045 -2.095 H 34.697 c -1.351 0 -2.562 0.833 -3.045 2.095 l -2.201 5.752 c -0.69 1.804 -2.422 2.996 -4.354 2.996 H 7.261 C 3.803 35.789 1 38.592 1 42.05 v 38.704 c 0 3.458 2.803 6.261 6.261 6.261 h 75.478 c 3.458 0 6.261 -2.803 6.261 -6.261 V 42.05 C 89 38.592 86.197 35.789 82.739 35.789 z" style="stroke: none; stroke-width: 1; stroke-dasharray: none; stroke-linecap: butt; stroke-linejoin: miter; stroke-miterlimit: 10; fill: rgb(204,238,255); fill-rule: nonzero; opacity: 1;" transform=" matrix(1 0 0 1 0 0) " stroke-linecap="round"/>
	<path d="M 19.65 35.789 h -7.79 v -1.844 c 0 -2.151 1.744 -3.895 3.895 -3.895 h 0 c 2.151 0 3.895 1.744 3.895 3.895 V 35.789 z" style="stroke: none; stroke-width: 1; stroke-dasharray: none; stroke-linecap: butt; stroke-linejoin: miter; stroke-miterlimit: 10; fill: rgb(116,136,146); fill-rule: nonzero; opacity: 1;" transform=" matrix(1 0 0 1 0 0) " stroke-linecap="round"/>
	<path d="M 64 61.402 c 0 2.514 -0.481 4.916 -1.354 7.116 c -0.964 2.428 -2.407 4.611 -4.211 6.429 c -3.438 3.466 -8.188 5.611 -13.435 5.611 c -10.493 0 -19 -8.576 -19 -19.155 c 0 -5.29 2.127 -10.079 5.565 -13.545 c 1.804 -1.819 3.969 -3.274 6.378 -4.246 c 2.182 -0.881 4.563 -1.365 7.057 -1.365 C 55.493 42.246 64 50.823 64 61.402 z" style="stroke: none; stroke-width: 1; stroke-dasharray: none; stroke-linecap: butt; stroke-linejoin: miter; stroke-miterlimit: 10; fill: rgb(242,90,120); fill-rule: nonzero; opacity: 1;" transform=" matrix(1 0 0 1 0 0) " stroke-linecap="round"/>
	<path d="M 57.5 61.402 c 0 1.654 -0.316 3.234 -0.891 4.681 c -0.634 1.597 -1.584 3.033 -2.77 4.23 c -2.262 2.281 -5.387 3.691 -8.839 3.691 c -6.904 0 -12.5 -5.642 -12.5 -12.602 c 0 -3.48 1.399 -6.631 3.661 -8.911 c 1.187 -1.197 2.611 -2.154 4.196 -2.793 C 41.793 49.118 43.359 48.8 45 48.8 C 51.904 48.8 57.5 54.442 57.5 61.402 z" style="stroke: none; stroke-width: 1; stroke-dasharray: none; stroke-linecap: butt; stroke-linejoin: miter; stroke-miterlimit: 10; fill: rgb(255,255,255); fill-rule: nonzero; opacity: 1;" transform=" matrix(1 0 0 1 0 0) " stroke-linecap="round"/>
	<path d="M 45 81.533 c -11.015 0 -19.976 -9.03 -19.976 -20.131 c 0 -5.376 2.077 -10.431 5.848 -14.232 c 1.929 -1.945 4.185 -3.447 6.706 -4.463 c 4.784 -1.931 10.261 -1.904 15.027 0.074 c 0.51 0.212 0.752 0.797 0.54 1.307 c -0.213 0.51 -0.796 0.75 -1.308 0.541 c -4.283 -1.778 -9.211 -1.802 -13.511 -0.067 c -2.267 0.915 -4.297 2.266 -6.034 4.017 c -3.397 3.425 -5.268 7.979 -5.268 12.824 c 0 9.997 8.064 18.131 17.976 18.131 c 4.8 0 9.313 -1.885 12.708 -5.308 c 1.737 -1.752 3.078 -3.799 3.986 -6.086 c 0.851 -2.144 1.282 -4.41 1.282 -6.737 c 0 -4.103 -1.325 -7.972 -3.831 -11.19 c -0.339 -0.436 -0.261 -1.063 0.175 -1.403 c 0.436 -0.341 1.063 -0.261 1.403 0.175 c 2.782 3.573 4.253 7.867 4.253 12.419 c 0 2.581 -0.479 5.096 -1.423 7.476 c -1.009 2.539 -2.497 4.813 -4.426 6.756 C 55.354 79.438 50.338 81.533 45 81.533 z" style="stroke: none; stroke-width: 1; stroke-dasharray: none; stroke-linecap: butt; stroke-linejoin: miter; stroke-miterlimit: 10; fill: rgb(46,54,58); fill-rule: nonzero; opacity: 1;" transform=" matrix(1 0 0 1 0 0) " stroke-linecap="round"/>
	<path d="M 56.936 47.529 c -0.222 0 -0.446 -0.074 -0.632 -0.226 c -0.333 -0.271 -0.675 -0.533 -1.027 -0.78 c -0.452 -0.318 -0.561 -0.942 -0.243 -1.394 c 0.318 -0.452 0.941 -0.561 1.394 -0.243 c 0.392 0.275 0.772 0.565 1.143 0.868 c 0.428 0.35 0.491 0.979 0.142 1.407 C 57.514 47.404 57.226 47.529 56.936 47.529 z" style="stroke: none; stroke-width: 1; stroke-dasharray: none; stroke-linecap: butt; stroke-linejoin: miter; stroke-miterlimit: 10; fill: rgb(46,54,58); fill-rule: nonzero; opacity: 1;" transform=" matrix(1 0 0 1 0 0) " stroke-linecap="round"/>
	<path d="M 82.739 88.015 H 7.261 C 3.257 88.015 0 84.758 0 80.754 V 42.05 c 0 -4.004 3.257 -7.261 7.261 -7.261 h 17.836 c 1.507 0 2.881 -0.946 3.419 -2.353 l 2.201 -5.751 c 0.627 -1.638 2.226 -2.738 3.979 -2.738 h 20.607 c 1.753 0 3.352 1.101 3.978 2.738 l 2.201 5.751 c 0.539 1.407 1.913 2.353 3.42 2.353 h 17.837 c 4.004 0 7.261 3.257 7.261 7.261 v 38.704 C 90 84.758 86.743 88.015 82.739 88.015 z M 7.261 36.789 C 4.36 36.789 2 39.149 2 42.05 v 38.704 c 0 2.9 2.36 5.261 5.261 5.261 h 75.478 c 2.9 0 5.261 -2.36 5.261 -5.261 V 42.05 c 0 -2.901 -2.36 -5.261 -5.261 -5.261 H 64.902 c -2.33 0 -4.455 -1.462 -5.287 -3.638 l -2.201 -5.751 c -0.333 -0.869 -1.181 -1.453 -2.11 -1.453 H 34.697 c -0.93 0 -1.778 0.584 -2.111 1.453 l -2.201 5.751 c -0.833 2.176 -2.958 3.638 -5.288 3.638 H 7.261 z" style="stroke: none; stroke-width: 1; stroke-dasharray: none; stroke-linecap: butt; stroke-linejoin: miter; stroke-miterlimit: 10; fill: rgb(46,54,58); fill-rule: nonzero; opacity: 1;" transform=" matrix(1 0 0 1 0 0) " stroke-linecap="round"/>
	<path d="M 19.65 36.789 h -7.791 c -0.552 0 -1 -0.448 -1 -1 v -1.843 c 0 -2.699 2.196 -4.896 4.896 -4.896 s 4.895 2.196 4.895 4.896 v 1.843 C 20.65 36.341 20.202 36.789 19.65 36.789 z M 12.859 34.789 h 5.791 v -0.843 c 0 -1.597 -1.299 -2.896 -2.895 -2.896 c -1.597 0 -2.896 1.299 -2.896 2.896 V 34.789 z" style="stroke: none; stroke-width: 1; stroke-dasharray: none; stroke-linecap: butt; stroke-linejoin: miter; stroke-miterlimit: 10; fill: rgb(46,54,58); fill-rule: nonzero; opacity: 1;" transform=" matrix(1 0 0 1 0 0) " stroke-linecap="round"/>
	<path d="M 80.575 43.852 h -7.641 c -0.553 0 -1 -0.448 -1 -1 s 0.447 -1 1 -1 h 7.641 c 0.553 0 1 0.448 1 1 S 81.128 43.852 80.575 43.852 z" style="stroke: none; stroke-width: 1; stroke-dasharray: none; stroke-linecap: butt; stroke-linejoin: miter; stroke-miterlimit: 10; fill: rgb(46,54,58); fill-rule: nonzero; opacity: 1;" transform=" matrix(1 0 0 1 0 0) " stroke-linecap="round"/>
	<path d="M 45 75.004 c -7.444 0 -13.5 -6.102 -13.5 -13.602 c 0 -3.632 1.403 -7.047 3.951 -9.615 c 1.303 -1.314 2.827 -2.329 4.531 -3.018 c 1.596 -0.644 3.284 -0.97 5.018 -0.97 c 7.444 0 13.5 6.103 13.5 13.603 c 0 1.743 -0.323 3.442 -0.961 5.05 c -0.682 1.715 -1.688 3.251 -2.99 4.565 C 51.999 73.588 48.608 75.004 45 75.004 z M 45 49.8 c -1.476 0 -2.912 0.277 -4.269 0.825 c -1.451 0.585 -2.749 1.45 -3.86 2.57 c -2.174 2.191 -3.371 5.106 -3.371 8.207 c 0 6.397 5.159 11.602 11.5 11.602 c 3.07 0 5.958 -1.206 8.129 -3.395 c 1.111 -1.121 1.97 -2.433 2.551 -3.896 c 0.544 -1.371 0.82 -2.822 0.82 -4.312 C 56.5 55.005 51.341 49.8 45 49.8 z" style="stroke: none; stroke-width: 1; stroke-dasharray: none; stroke-linecap: butt; stroke-linejoin: miter; stroke-miterlimit: 10; fill: rgb(46,54,58); fill-rule: nonzero; opacity: 1;" transform=" matrix(1 0 0 1 0 0) " stroke-linecap="round"/>
	<path d="M 49.192 33.238 h -8.385 c -0.552 0 -1 -0.448 -1 -1 s 0.448 -1 1 -1 h 8.385 c 0.553 0 1 0.448 1 1 S 49.745 33.238 49.192 33.238 z" style="stroke: none; stroke-width: 1; stroke-dasharray: none; stroke-linecap: butt; stroke-linejoin: miter; stroke-miterlimit: 10; fill: rgb(46,54,58); fill-rule: nonzero; opacity: 1;" transform=" matrix(1 0 0 1 0 0) " stroke-linecap="round"/>
	<path d="M 24.351 76.176 H 1 c -0.552 0 -1 -0.447 -1 -1 s 0.448 -1 1 -1 h 23.351 c 0.552 0 1 0.447 1 1 S 24.903 76.176 24.351 76.176 z" style="stroke: none; stroke-width: 1; stroke-dasharray: none; stroke-linecap: butt; stroke-linejoin: miter; stroke-miterlimit: 10; fill: rgb(46,54,58); fill-rule: nonzero; opacity: 1;" transform=" matrix(1 0 0 1 0 0) " stroke-linecap="round"/>
	<path d="M 89 76.176 H 65.649 c -0.553 0 -1 -0.447 -1 -1 s 0.447 -1 1 -1 H 89 c 0.553 0 1 0.447 1 1 S 89.553 76.176 89 76.176 z" style="stroke: none; stroke-width: 1; stroke-dasharray: none; stroke-linecap: butt; stroke-linejoin: miter; stroke-miterlimit: 10; fill: rgb(46,54,58); fill-rule: nonzero; opacity: 1;" transform=" matrix(1 0 0 1 0 0) " stroke-linecap="round"/>
	<path d="M 45 20.181 c -0.552 0 -1 -0.448 -1 -1 V 2.985 c 0 -0.552 0.448 -1 1 -1 s 1 0.448 1 1 v 16.196 C 46 19.733 45.552 20.181 45 20.181 z" style="stroke: none; stroke-width: 1; stroke-dasharray: none; stroke-linecap: butt; stroke-linejoin: miter; stroke-miterlimit: 10; fill: rgb(46,54,58); fill-rule: nonzero; opacity: 1;" transform=" matrix(1 0 0 1 0 0) " stroke-linecap="round"/>
	<path d="M 52.944 20.181 c -0.22 0 -0.442 -0.073 -0.627 -0.222 c -0.43 -0.347 -0.497 -0.977 -0.15 -1.406 l 7.944 -9.84 c 0.348 -0.43 0.977 -0.497 1.406 -0.15 c 0.43 0.347 0.497 0.977 0.15 1.406 l -7.944 9.84 C 53.525 20.054 53.236 20.181 52.944 20.181 z" style="stroke: none; stroke-width: 1; stroke-dasharray: none; stroke-linecap: butt; stroke-linejoin: miter; stroke-miterlimit: 10; fill: rgb(46,54,58); fill-rule: nonzero; opacity: 1;" transform=" matrix(1 0 0 1 0 0) " stroke-linecap="round"/>
	<path d="M 37.056 20.181 c -0.292 0 -0.581 -0.127 -0.778 -0.372 l -7.945 -9.84 c -0.347 -0.43 -0.28 -1.06 0.149 -1.406 c 0.43 -0.347 1.06 -0.28 1.406 0.149 l 7.945 9.84 c 0.347 0.43 0.28 1.06 -0.149 1.406 C 37.499 20.108 37.276 20.181 37.056 20.181 z" style="stroke: none; stroke-width: 1; stroke-dasharray: none; stroke-linecap: butt; stroke-linejoin: miter; stroke-miterlimit: 10; fill: rgb(46,54,58); fill-rule: nonzero; opacity: 1;" transform=" matrix(1 0 0 1 0 0) " stroke-linecap="round"/>
</g>
</svg>