<svg width="64" height="64" viewBox="0 0 64 64" fill="none" xmlns="http://www.w3.org/2000/svg">
<path fill-rule="evenodd" clip-rule="evenodd" d="M32 64C49.6731 64 64 49.6731 64 32C64 14.3269 49.6731 0 32 0C14.3269 0 0 14.3269 0 32C0 49.6731 14.3269 64 32 64Z" fill="#FF4185"/>
<path fill-rule="evenodd" clip-rule="evenodd" d="M33.5 14C35.7209 14 37.6599 15.2066 38.6973 17L45.5 17C48.8137 17 51.5 19.6863 51.5 23V44C51.5 47.3137 48.8137 50 45.5 50H30.5C28.2796 50 26.3408 48.7938 25.3033 47.001L18.5 47C15.1863 47 12.5 44.3137 12.5 41V20C12.5 16.6863 15.1863 14 18.5 14H33.5ZM32.8186 25.4272C31.9373 25.4272 31.4177 25.9653 31.4177 26.8931V37.7197C31.4177 38.6382 31.9373 39.1763 32.8186 39.1763C33.6999 39.1763 34.2195 38.6382 34.2195 37.7197V26.8931C34.2195 25.9653 33.6999 25.4272 32.8186 25.4272ZM45.0996 25.6128H38.8374C38.0079 25.6128 37.4989 26.0894 37.4419 26.9112L37.4365 27.0693V37.7197C37.4365 38.6382 37.956 39.1763 38.8374 39.1763C39.6669 39.1763 40.1759 38.6996 40.2329 37.8778L40.2383 37.7197V33.7305H44.645C45.3779 33.7305 45.8418 33.313 45.8418 32.6172C45.8418 31.9764 45.4296 31.57 44.7863 31.5187L44.645 31.5132H40.2383V27.9321H45.0996C45.8603 27.9321 46.3706 27.4961 46.3706 26.7725C46.3706 26.0941 45.9303 25.6684 45.2408 25.6179L45.0996 25.6128ZM22.5786 24.8809C18.645 24.8809 16.1958 27.4785 16.1958 31.7646C16.1958 36.1157 18.645 38.7227 22.6436 38.7227C26.4194 38.7227 28.5811 36.4312 28.5811 33.0264V32.8223C28.5811 31.9038 28.0615 31.3657 27.1802 31.3657H23.9053C23.228 31.3657 22.7827 31.7461 22.7827 32.3862C22.7827 33.0264 23.2373 33.4067 23.9053 33.4067H25.8535L25.8442 33.6201C25.7886 35.2808 24.5176 36.4033 22.6899 36.4033C20.4634 36.4033 19.0532 34.6313 19.0532 31.7275C19.0532 28.8794 20.3799 27.2002 22.5879 27.2002C23.9053 27.2002 24.8794 27.7847 25.5381 28.9814C25.8813 29.5474 26.2988 29.7979 26.8926 29.7979C27.6255 29.7979 28.1172 29.3062 28.1172 28.5918C28.1172 28.3228 28.0708 28.0537 27.9131 27.729C27.1616 26.0869 25.1484 24.8809 22.5786 24.8809Z" fill="white"/>
</svg>
