<svg width="64" height="64" viewBox="0 0 64 64" fill="none" xmlns="http://www.w3.org/2000/svg">
<path fill-rule="evenodd" clip-rule="evenodd" d="M32 64C49.6731 64 64 49.6731 64 32C64 14.3269 49.6731 0 32 0C14.3269 0 0 14.3269 0 32C0 49.6731 14.3269 64 32 64Z" fill="#773AFE"/>
<path fill-rule="evenodd" clip-rule="evenodd" d="M42.5 18.5C49.9558 18.5 56 24.5442 56 32C56 39.4558 49.9558 45.5 42.5 45.5H21.5C14.0442 45.5 8 39.4558 8 32C8 24.5442 14.0442 18.5 21.5 18.5H42.5ZM20 26L19.8555 26.0069C19.1424 26.075 18.575 26.6424 18.5069 27.3555L18.5 27.5V30.5H15.5L15.3555 30.5069C14.6424 30.575 14.075 31.1424 14.0069 31.8555L14 32L14.0069 32.1445C14.075 32.8576 14.6424 33.425 15.3555 33.4931L15.5 33.5H18.5V36.5L18.5069 36.6445C18.575 37.3576 19.1424 37.925 19.8555 37.9931L20 38L20.1445 37.9931C20.8576 37.925 21.425 37.3576 21.4931 36.6445L21.5 36.5V33.5H24.5L24.6445 33.4931C25.3576 33.425 25.925 32.8576 25.9931 32.1445L26 32L25.9931 31.8555C25.925 31.1424 25.3576 30.575 24.6445 30.5069L24.5 30.5H21.5V27.5L21.4931 27.3555C21.425 26.6424 20.8576 26.075 20.1445 26.0069L20 26ZM41 32C39.3431 32 38 33.3431 38 35C38 36.6569 39.3431 38 41 38C42.6569 38 44 36.6569 44 35C44 33.3431 42.6569 32 41 32ZM47 26C45.3431 26 44 27.3431 44 29C44 30.6569 45.3431 32 47 32C48.6569 32 50 30.6569 50 29C50 27.3431 48.6569 26 47 26Z" fill="white"/>
</svg>
