<svg width="64" height="64" viewBox="0 0 64 64" fill="none" xmlns="http://www.w3.org/2000/svg">
<path fill-rule="evenodd" clip-rule="evenodd" d="M32 64C49.6731 64 64 49.6731 64 32C64 14.3269 49.6731 0 32 0C14.3269 0 0 14.3269 0 32C0 49.6731 14.3269 64 32 64Z" fill="#0498FE"/>
<path fill-rule="evenodd" clip-rule="evenodd" d="M12.7791 27.0378L44.943 15.9112C46.2478 15.4599 47.6715 16.1517 48.1229 17.4566C48.3061 17.986 48.3061 18.5617 48.1229 19.0912L36.9963 51.2551C36.5449 52.5599 35.1212 53.2518 33.8164 52.8004C33.0902 52.5492 32.5199 51.978 32.2698 51.2514L28.0739 39.0608C27.5728 37.6051 26.4291 36.4613 24.9733 35.9603L12.7827 31.7644C11.4772 31.315 10.7831 29.8924 11.2325 28.5868C11.4826 27.8603 12.0529 27.2891 12.7791 27.0378Z" fill="white"/>
</svg>
