<svg width="30" height="30" viewBox="0 0 30 30" fill="none" xmlns="http://www.w3.org/2000/svg">
<circle cx="15" cy="15" r="15" fill="#ADAEAF"/>
<path d="M20.9332 12.6C20.6082 12.6 20.3498 12.8583 20.3498 13.1833V14.5C20.3498 17.45 17.9498 19.85 14.9998 19.85C12.0498 19.85 9.64982 17.45 9.64982 14.5V13.175C9.64982 12.85 9.39149 12.5917 9.06649 12.5917C8.74149 12.5917 8.48315 12.85 8.48315 13.175V14.4917C8.48315 17.8833 11.0915 20.675 14.4165 20.975V22.75C14.4165 23.075 14.6748 23.3333 14.9998 23.3333C15.3248 23.3333 15.5832 23.075 15.5832 22.75V20.975C18.8998 20.6833 21.5165 17.8833 21.5165 14.4917V13.175C21.5082 12.8583 21.2498 12.6 20.9332 12.6Z" fill="white"/>
<path d="M14.9999 6.66663C12.9665 6.66663 11.3165 8.31663 11.3165 10.35V14.6166C11.3165 16.65 12.9665 18.3 14.9999 18.3C17.0332 18.3 18.6832 16.65 18.6832 14.6166V10.35C18.6832 8.31663 17.0332 6.66663 14.9999 6.66663ZM16.0915 12.4583C16.0332 12.675 15.8415 12.8166 15.6249 12.8166C15.5832 12.8166 15.5415 12.8083 15.4999 12.8C15.1749 12.7083 14.8332 12.7083 14.5082 12.8C14.2415 12.875 13.9832 12.7166 13.9165 12.4583C13.8415 12.2 13.9999 11.9333 14.2582 11.8666C14.7499 11.7333 15.2665 11.7333 15.7582 11.8666C16.0082 11.9333 16.1582 12.2 16.0915 12.4583ZM16.5332 10.8416C16.4582 11.0416 16.2749 11.1583 16.0749 11.1583C16.0165 11.1583 15.9665 11.15 15.9082 11.1333C15.3249 10.9166 14.6749 10.9166 14.0915 11.1333C13.8415 11.225 13.5582 11.0916 13.4665 10.8416C13.3749 10.5916 13.5082 10.3083 13.7582 10.225C14.5582 9.93329 15.4415 9.93329 16.2415 10.225C16.4915 10.3166 16.6249 10.5916 16.5332 10.8416Z" fill="white"/>
</svg>
