<svg width="20" height="20" viewBox="0 0 20 20" fill="none" xmlns="http://www.w3.org/2000/svg">
<path d="M9.81717 2.00978C8.77741 1.99877 7.74605 2.19683 6.78433 2.5922C5.82261 2.98758 4.95017 3.57221 4.21882 4.31136C3.49007 5.04964 2.9181 5.92764 2.53729 6.89258C2.15648 7.85753 1.97469 8.8895 2.00283 9.92649C2.00569 10.9776 2.22935 12.0164 2.65933 12.9756C3.08931 13.9348 3.716 14.7929 4.49881 15.4944C4.57334 15.5588 4.63282 15.6387 4.67305 15.7285C4.71328 15.8184 4.73327 15.916 4.73161 16.0144V17.1744C4.73161 17.564 4.89961 18 5.39321 18C5.50053 17.9955 5.60549 17.9671 5.70041 17.9168L7.19079 17.2576C7.35855 17.1924 7.54464 17.1924 7.71239 17.2576C11.8756 18.3896 16.5515 16.2096 17.6875 11.9217C18.0362 10.7338 18.094 9.47949 17.8562 8.26456C17.6184 7.04963 17.0919 5.90971 16.3211 4.94095C15.5502 3.96953 14.5577 3.19703 13.4267 2.68818C12.2946 2.17823 11.0571 1.94513 9.81717 2.00978ZM13.4123 9.3601C11.3724 12.9521 11.3636 12.1441 8.80198 10.4369C8.50358 10.4369 8.35478 10.6593 7.35799 11.3649C6.3612 12.0705 6.194 12.3673 5.8956 12.0513C5.59801 11.7361 6.5196 10.6873 7.75879 8.66411C8.83878 6.88253 10.3292 9.3513 11.2788 9.4993C11.882 9.16256 12.4446 8.75779 12.9555 8.29291C13.6083 7.79212 13.7939 7.59692 14.0547 7.80172C14.3155 8.00571 14.0923 8.29291 13.4123 9.3601Z" fill="#53575A"/>
</svg>
