<svg xmlns="http://www.w3.org/2000/svg" xmlns:xlink="http://www.w3.org/1999/xlink" version="1.1" width="256" height="256" viewBox="0 0 256 256" xml:space="preserve">
<g style="stroke: none; stroke-width: 0; stroke-dasharray: none; stroke-linecap: butt; stroke-linejoin: miter; stroke-miterlimit: 10; fill: none; fill-rule: nonzero; opacity: 1;" transform="translate(1.4065934065934016 1.4065934065934016) scale(2.81 2.81)">
	<path d="M 63.592 53.371 h -0.001 c -0.064 -4.042 -2.165 -7.935 -5.408 -10.193 c -3.232 -2.316 -7.523 -2.865 -11.162 -1.604 c -3.671 1.234 -6.511 4.301 -7.598 7.84 c -0.535 1.779 -0.632 3.654 -0.309 5.433 c 0.327 1.781 1.098 3.446 2.17 4.836 c -1.776 -3.037 -1.996 -6.803 -0.686 -9.85 c 1.257 -3.076 3.988 -5.404 7.056 -6.197 c 1.526 -0.395 3.151 -0.445 4.673 -0.113 c 1.524 0.326 2.948 1.008 4.154 1.951 c 2.427 1.89 3.826 4.911 3.721 7.898 l 0 0 c -0.059 4.066 -1.826 8.026 -4.783 10.74 c -2.92 2.74 -6.91 4.274 -10.904 4.07 c -3.955 -0.168 -7.766 -2.037 -10.4 -5.065 c -2.653 -3.013 -4.076 -7.059 -3.953 -11.093 c 0.076 -2.107 0.374 -4.19 1.01 -6.163 c 0.631 -1.973 1.57 -3.835 2.766 -5.564 c 2.393 -3.487 5.881 -6.237 9.351 -9.119 c 1.742 -1.442 3.508 -2.917 5.139 -4.577 c 1.621 -1.664 3.079 -3.56 4.113 -5.682 c 1.047 -2.118 1.565 -4.461 1.638 -6.762 c 0.091 -2.309 -0.286 -4.58 -0.858 -6.761 c 0.274 2.241 0.351 4.501 0.041 6.691 c -0.302 2.189 -1.027 4.278 -2.131 6.128 c -2.245 3.72 -5.858 6.345 -9.484 8.964 c -3.651 2.594 -7.465 5.363 -10.433 9.19 c -1.481 1.899 -2.674 4.07 -3.476 6.373 c -0.818 2.301 -1.234 4.714 -1.39 7.105 c -0.351 4.984 1.405 10.065 4.679 13.86 c 1.631 1.905 3.647 3.497 5.916 4.625 c 2.264 1.139 4.798 1.742 7.323 1.831 c 5.033 0.196 10.131 -1.767 13.695 -5.306 c 3.591 -3.507 5.627 -8.511 5.531 -13.473 h 0 L 63.592 53.371 z" style="stroke: none; stroke-width: 1; stroke-dasharray: none; stroke-linecap: butt; stroke-linejoin: miter; stroke-miterlimit: 10; fill: rgb(216,26,26); fill-rule: nonzero; opacity: 1;" transform=" matrix(1 0 0 1 0 0) " stroke-linecap="round"/>
	<path d="M 49.92 0.636 c -0.604 -0.39 -1.36 -0.64 -2.135 -0.636 c -0.775 -0.001 -1.53 0.234 -2.179 0.588 c -1.295 0.728 -2.219 1.855 -2.895 3.046 c -1.364 2.386 -1.817 5.238 -1.578 7.865 c 0.124 2.472 0.339 4.977 0.645 7.435 c 0.244 1.969 0.511 3.93 0.78 5.89 c 0.855 -0.651 1.68 -1.31 2.458 -2.001 c 0.308 -0.269 0.6 -0.538 0.879 -0.808 c -0.216 -1.195 -0.431 -2.393 -0.647 -3.586 c -0.381 -2.42 -0.84 -4.796 -1.136 -7.232 c -0.198 -1.167 -0.223 -2.223 -0.134 -3.34 c 0.089 -1.1 0.336 -2.193 0.769 -3.191 c 0.422 -1.002 1.056 -1.897 1.835 -2.514 c 0.788 -0.599 1.756 -0.79 2.695 -0.348 c 0.941 0.42 1.78 1.31 2.413 2.314 c 0.647 1.007 1.187 2.121 1.63 3.276 c -0.212 -1.217 -0.491 -2.442 -0.989 -3.617 C 51.83 2.62 51.136 1.438 49.92 0.636 z" style="stroke: none; stroke-width: 1; stroke-dasharray: none; stroke-linecap: butt; stroke-linejoin: miter; stroke-miterlimit: 10; fill: rgb(216,26,26); fill-rule: nonzero; opacity: 1;" transform=" matrix(1 0 0 1 0 0) " stroke-linecap="round"/>
	<path d="M 44.407 34.187 c -0.117 0.096 -0.231 0.191 -0.347 0.287 c 0.251 1.576 0.523 3.147 0.801 4.718 c 0.394 -0.174 0.787 -0.35 1.196 -0.487 c 0.865 -0.3 1.759 -0.489 2.662 -0.623 c -0.371 -2.192 -0.746 -4.383 -1.129 -6.57 C 46.526 32.437 45.457 33.32 44.407 34.187 z" style="stroke: none; stroke-width: 1; stroke-dasharray: none; stroke-linecap: butt; stroke-linejoin: miter; stroke-miterlimit: 10; fill: rgb(216,26,26); fill-rule: nonzero; opacity: 1;" transform=" matrix(1 0 0 1 0 0) " stroke-linecap="round"/>
	<path d="M 49.558 64.312 c 0.957 -0.385 1.869 -0.892 2.711 -1.517 c -0.023 -0.2 -0.041 -0.401 -0.065 -0.601 c -0.522 -4.914 -1.244 -9.795 -1.939 -14.679 c -0.062 -0.395 -0.13 -0.788 -0.192 -1.183 c -0.552 0.014 -1.11 0.092 -1.661 0.235 c -0.735 0.19 -1.432 0.513 -2.075 0.925 c 0.038 0.221 0.079 0.442 0.116 0.663 l 2.781 14.496 C 49.338 63.206 49.45 63.758 49.558 64.312 z" style="stroke: none; stroke-width: 1; stroke-dasharray: none; stroke-linecap: butt; stroke-linejoin: miter; stroke-miterlimit: 10; fill: rgb(216,26,26); fill-rule: nonzero; opacity: 1;" transform=" matrix(1 0 0 1 0 0) " stroke-linecap="round"/>
	<path d="M 51.464 74.201 c 0.084 0.907 0.065 1.822 -0.053 2.738 c -0.296 2.3 -1.183 4.55 -2.486 6.516 c -1.311 1.951 -3.029 3.696 -5.139 4.747 c -2.98 1.684 -6.722 1.087 -9.504 -0.942 c 0.656 0.28 1.377 0.436 2.134 0.436 c 3.005 0 5.45 -2.444 5.45 -5.45 c 0 -3.005 -2.445 -5.45 -5.45 -5.45 c -3.005 0 -5.45 2.445 -5.45 5.45 c 0 1.676 0.762 3.177 1.957 4.178 c 1.021 1.204 2.334 2.183 3.797 2.832 c 1.169 0.509 2.459 0.768 3.751 0.741 c 1.294 -0.022 2.569 -0.358 3.749 -0.868 c 2.374 -1.033 4.338 -2.818 5.848 -4.879 c 1.506 -2.073 2.59 -4.477 3.04 -7.051 c 0.208 -1.188 0.267 -2.423 0.159 -3.64 C 52.677 73.802 52.074 74.011 51.464 74.201 z" style="stroke: none; stroke-width: 1; stroke-dasharray: none; stroke-linecap: butt; stroke-linejoin: miter; stroke-miterlimit: 10; fill: rgb(216,26,26); fill-rule: nonzero; opacity: 1;" transform=" matrix(1 0 0 1 0 0) " stroke-linecap="round"/>
</g>
</svg>