<svg width="24" height="24" viewBox="0 0 24 24" fill="none" xmlns="http://www.w3.org/2000/svg">
<path d="M11.4949 11.0096L11.5031 10.985L11.823 10.3493L11.8353 10.3287C12.6474 8.99983 13.8819 8.23694 15.2313 8.23694C15.6127 8.23283 15.9901 8.30256 16.3469 8.43791C16.5397 8.51174 16.716 8.59377 16.8842 8.67581C17.9055 9.19261 18.3853 9.86937 18.6683 10.6118C18.7504 10.2713 18.8078 9.92269 18.8365 9.56995V8.60608C18.6027 5.71036 16.6955 4.20098 15.0467 4.04102C14.776 4.0123 14.5218 4 14.2839 4C12.3767 4 11.4621 4.82442 10.4162 6.0713C9.37032 4.82442 8.4557 4 6.54852 4C6.31063 4 6.05634 4.0123 5.78565 4.04102C4.14096 4.20098 2.23378 5.71446 2 8.61018V9.57405C2.20507 12.195 4.08764 15.3942 9.46056 19.3604C10.0307 19.7788 10.8099 19.7788 11.38 19.3604C11.7533 19.0856 12.106 18.8149 12.4464 18.5483C11.0314 15.3655 10.7238 12.8922 11.4949 11.0096Z" fill="url(#paint0_linear_4310_9514)"/>
<path d="M21.7777 11.9037C21.6219 11.8052 21.4701 11.7191 21.3225 11.6453C20.1576 11.0546 19.3455 11.2802 18.3202 11.7191C18.0659 10.6322 17.7624 9.84876 16.5976 9.25813C16.4499 9.1843 16.2941 9.11457 16.1177 9.04485C15.0595 8.63469 13.4271 8.96692 12.3936 10.6691L12.0942 11.2597C11.4092 12.9249 11.5733 15.4597 13.6322 19.5449C13.8496 19.9797 14.3254 20.2176 14.8052 20.1355C19.3127 19.3685 21.4537 17.9945 22.3847 16.4564L22.6841 15.8658C23.4347 14.0242 22.7334 12.5107 21.7777 11.9037Z" fill="url(#paint1_linear_4310_9514)"/>
<defs>
<linearGradient id="paint0_linear_4310_9514" x1="2.72912" y1="1.87837" x2="22.3376" y2="21.4866" gradientUnits="userSpaceOnUse">
<stop stop-color="#FF567F"/>
<stop offset="1" stop-color="#F4166B"/>
</linearGradient>
<linearGradient id="paint1_linear_4310_9514" x1="3.29502" y1="1.31283" x2="22.9035" y2="20.9207" gradientUnits="userSpaceOnUse">
<stop stop-color="#FF567F"/>
<stop offset="1" stop-color="#F4166B"/>
</linearGradient>
</defs>
</svg>
