<svg width="12" height="15" viewBox="0 0 12 15" fill="none" xmlns="http://www.w3.org/2000/svg">
<path opacity="0.5" d="M6 0C3.5 0 1.5 1.875 1.5 4.21875V6.09375C0.65 6.09375 0 6.70312 0 7.5V13.5938C0 14.3906 0.65 15 1.5 15H10.5C11.35 15 12 14.3906 12 13.5938V7.5C12 6.70312 11.35 6.09375 10.5 6.09375V4.21875C10.5 1.875 8.5 0 6 0ZM11 7.5V13.5938C11 13.875 10.8 14.0625 10.5 14.0625H1.5C1.2 14.0625 1 13.875 1 13.5938V7.5C1 7.21875 1.2 7.03125 1.5 7.03125H2H10H10.5C10.8 7.03125 11 7.21875 11 7.5ZM2.5 6.09375V4.21875C2.5 2.39062 4.05 0.9375 6 0.9375C7.95 0.9375 9.5 2.39062 9.5 4.21875V6.09375H2.5Z" fill="#464647"/>
</svg>
