<svg width="64" height="64" viewBox="0 0 64 64" fill="none" xmlns="http://www.w3.org/2000/svg">
<path fill-rule="evenodd" clip-rule="evenodd" d="M32 64C49.6731 64 64 49.6731 64 32C64 14.3269 49.6731 0 32 0C14.3269 0 0 14.3269 0 32C0 49.6731 14.3269 64 32 64Z" fill="#70A0FE"/>
<path fill-rule="evenodd" clip-rule="evenodd" d="M36.5 47.0526C36.5 49.2327 34.4853 51 32 51C29.6141 51 27.6619 49.3713 27.5096 47.3122L27.5 47.0526H36.5ZM31.9838 13.5C38.41 13.5 42.4887 18.0396 43.6194 25.3317L45.181 36.8491C46.2807 41.1109 48.5 39.6558 48.5 41.9928C48.5 43.48 47.0507 44.177 44.1522 44.0839L43.7282 44.0652H20.2718L19.8478 44.0839C16.9493 44.177 15.5 43.48 15.5 41.9928C15.5 39.7392 17.5636 41.0118 18.697 37.2843L18.819 36.8491C18.819 36.8491 20.0307 28.1697 20.3806 25.3317C21.4823 18.2266 25.3828 13.7346 31.5265 13.5089L31.9838 13.5Z" fill="white"/>
</svg>
