<svg width="35" height="35" viewBox="0 0 35 35" fill="none" xmlns="http://www.w3.org/2000/svg">
<circle cx="17.5" cy="17.5" r="17.5" fill="#16B978"/>
<path d="M20.45 10.4667L12.925 12.9667C7.86664 14.6584 7.86664 17.4167 12.925 19.1L15.1583 19.8417L15.9 22.075C17.5833 27.1334 20.35 27.1334 22.0333 22.075L24.5416 14.5584C25.6583 11.1834 23.825 9.3417 20.45 10.4667ZM20.7166 14.95L17.55 18.1334C17.425 18.2584 17.2666 18.3167 17.1083 18.3167C16.95 18.3167 16.7916 18.2584 16.6666 18.1334C16.425 17.8917 16.425 17.4917 16.6666 17.25L19.8333 14.0667C20.075 13.825 20.475 13.825 20.7166 14.0667C20.9583 14.3084 20.9583 14.7084 20.7166 14.95Z" fill="white"/>
<circle cx="17.5" cy="17.5" r="17.5" fill="#D9D9D9" fill-opacity="0.5"/>
</svg>
