<svg width="24" height="24" viewBox="0 0 24 24" fill="none" xmlns="http://www.w3.org/2000/svg">
<path d="M9.49995 20.9969C8.30674 21.0264 5.96252 20.8411 5.19611 20.659C4.67369 20.549 4.1829 20.2449 3.81271 19.822C3.44766 19.4094 3.21806 18.8947 3.15493 18.3475C3.15493 18.3419 3.15493 18.3366 3.15493 18.331C3.11542 17.9362 3.10368 17.5391 3.11978 17.1427C3.11978 17.1427 3.09025 16.7929 3.15493 16.1583C3.15493 16.153 3.15493 16.1474 3.15493 16.1421C3.21066 15.6211 3.44375 15.1351 3.81517 14.7654C4.18833 14.3917 4.67758 14.1561 5.20244 14.0974C5.97131 14.0162 8.31026 13.9716 9.49889 13.9719C10.6875 13.9723 12.5958 14.0159 13.3661 14.0974C13.8909 14.1561 14.3802 14.3917 14.7534 14.7654C15.1249 15.1353 15.3581 15.6216 15.4139 16.1428V16.159C15.4804 16.7939 15.4716 17.1434 15.4716 17.1434C15.4735 17.5409 15.4543 17.9383 15.4143 18.3338V18.35C15.352 18.8981 15.1223 19.4136 14.7565 19.8265C14.3867 20.2484 13.8955 20.5532 13.3731 20.6632C12.605 20.8341 10.6932 21.005 9.49995 20.9969ZM9.21378 5.64622C8.47878 5.64622 7.76028 5.86416 7.14914 6.27249C6.538 6.68082 6.06166 7.2612 5.78036 7.94024C5.49905 8.61927 5.42542 9.36648 5.56876 10.0874C5.7121 10.8083 6.06598 11.4704 6.58565 11.9902C7.10533 12.51 7.76746 12.864 8.48832 13.0075C9.20918 13.151 9.95639 13.0775 10.6355 12.7963C11.3146 12.5151 11.895 12.0389 12.3035 11.4278C12.7119 10.8168 12.93 10.0983 12.9302 9.3633C12.9303 8.87518 12.8343 8.39182 12.6476 7.94083C12.4608 7.48984 12.1871 7.08005 11.842 6.73486C11.4969 6.38968 11.0871 6.11588 10.6362 5.92908C10.1852 5.74229 9.70189 5.64617 9.21378 5.64622ZM14.6289 3C13.9469 2.99992 13.2781 3.18758 12.6956 3.54242C12.1132 3.89725 11.6397 4.40556 11.327 5.01165C12.2991 5.48387 13.0852 6.26792 13.5599 7.23882C14.0345 8.20972 14.1705 9.31158 13.9462 10.3688C14.4543 10.4638 14.9766 10.4517 15.4798 10.3334C15.983 10.215 16.4559 9.99299 16.8684 9.68148C17.2809 9.36997 17.6239 8.97583 17.8754 8.52424C18.127 8.07266 18.2815 7.57356 18.3292 7.05886C18.3769 6.54415 18.3167 6.02516 18.1524 5.53504C17.9881 5.04493 17.7234 4.59449 17.3752 4.21249C17.0269 3.8305 16.6028 3.52536 16.1299 3.31658C15.657 3.10781 15.1458 2.99998 14.6289 3ZM20.8867 14.4961C20.8867 14.4961 20.8955 14.1477 20.8291 13.5117C20.8291 13.5065 20.8291 13.5008 20.8291 13.4956C20.773 12.9747 20.54 12.4889 20.1688 12.1192C19.7957 11.7455 19.3064 11.5099 18.7816 11.4512C18.0127 11.3697 16.1048 11.3254 14.9144 11.3257C14.567 11.3257 14.1213 11.3292 13.6452 11.3366C13.3761 11.9483 12.9838 12.498 12.4928 12.9514C12.8862 12.9696 13.2336 12.9918 13.4842 13.0185C14.2625 13.1036 14.9884 13.4519 15.5419 14.0056C16.0954 14.5594 16.4433 15.2854 16.5281 16.0637V16.0708V16.0782C16.5705 16.4471 16.5916 16.8181 16.5913 17.1894C16.5938 17.3754 16.5875 17.805 16.5467 18.2881C17.4368 18.2241 18.3214 18.1197 18.7854 18.0146C19.3079 17.9045 19.799 17.6008 20.1688 17.1778C20.5343 16.7654 20.764 16.2505 20.8266 15.703C20.8266 15.6978 20.8266 15.6921 20.8284 15.6869C20.8689 15.2913 20.8885 14.8938 20.8871 14.4961H20.8867Z" fill="url(#paint0_linear_4310_9465)"/>
<defs>
<linearGradient id="paint0_linear_4310_9465" x1="3.10993" y1="12" x2="20.8874" y2="12" gradientUnits="userSpaceOnUse">
<stop stop-color="#6949C6"/>
<stop offset="0.6" stop-color="#7C6EE0"/>
<stop offset="1" stop-color="#A28EEF"/>
</linearGradient>
</defs>
</svg>
