<svg width="30" height="30" viewBox="0 0 30 30" fill="none" xmlns="http://www.w3.org/2000/svg">
<circle cx="15" cy="15" r="15" fill="#ADAEAF"/>
<path d="M7.30841 13.3333C6.95008 13.3333 6.66675 13.05 6.66675 12.6916V10.7666C6.66675 8.50829 8.50841 6.66663 10.7667 6.66663H12.6917C13.0501 6.66663 13.3334 6.94996 13.3334 7.30829C13.3334 7.66663 13.0501 7.94996 12.6917 7.94996H10.7667C9.20841 7.94996 7.95008 9.21663 7.95008 10.7666V12.6916C7.95008 13.05 7.65841 13.3333 7.30841 13.3333Z" fill="white"/>
<path d="M22.6917 13.3333C22.3417 13.3333 22.0501 13.05 22.0501 12.6916V10.7666C22.0501 9.20829 20.7834 7.94996 19.2334 7.94996H17.3084C16.9501 7.94996 16.6667 7.65829 16.6667 7.30829C16.6667 6.95829 16.9501 6.66663 17.3084 6.66663H19.2334C21.4917 6.66663 23.3334 8.50829 23.3334 10.7666V12.6916C23.3334 13.05 23.0501 13.3333 22.6917 13.3333Z" fill="white"/>
<path d="M19.2333 23.3333H18.075C17.725 23.3333 17.4333 23.05 17.4333 22.6917C17.4333 22.3417 17.7167 22.05 18.075 22.05H19.2333C20.7917 22.05 22.05 20.7833 22.05 19.2333V18.0833C22.05 17.7333 22.3333 17.4417 22.6917 17.4417C23.0417 17.4417 23.3334 17.725 23.3334 18.0833V19.2333C23.3334 21.4917 21.4917 23.3333 19.2333 23.3333Z" fill="white"/>
<path d="M12.6917 23.3333H10.7667C8.50841 23.3333 6.66675 21.4916 6.66675 19.2333V17.3083C6.66675 16.95 6.95008 16.6666 7.30841 16.6666C7.66675 16.6666 7.95008 16.95 7.95008 17.3083V19.2333C7.95008 20.7916 9.21675 22.05 10.7667 22.05H12.6917C13.0417 22.05 13.3334 22.3333 13.3334 22.6916C13.3334 23.05 13.0501 23.3333 12.6917 23.3333Z" fill="white"/>
<path d="M20.3834 14.3583H19.2501H10.7501H9.61676C9.25843 14.3583 8.9751 14.6499 8.9751 14.9999C8.9751 15.3499 9.25843 15.6416 9.61676 15.6416H10.7501H19.2501H20.3834C20.7418 15.6416 21.0251 15.3499 21.0251 14.9999C21.0251 14.6499 20.7418 14.3583 20.3834 14.3583Z" fill="white"/>
<path d="M10.75 16.6167V16.8917C10.75 18.275 11.8667 19.3917 13.25 19.3917H16.75C18.1333 19.3917 19.25 18.275 19.25 16.8917V16.6167C19.25 16.5167 19.175 16.4417 19.075 16.4417H10.925C10.825 16.4417 10.75 16.5167 10.75 16.6167Z" fill="white"/>
<path d="M10.75 13.3833V13.1083C10.75 11.7249 11.8667 10.6083 13.25 10.6083H16.75C18.1333 10.6083 19.25 11.7249 19.25 13.1083V13.3833C19.25 13.4833 19.175 13.5583 19.075 13.5583H10.925C10.825 13.5583 10.75 13.4833 10.75 13.3833Z" fill="white"/>
</svg>
