<svg width="24" height="24" viewBox="0 0 24 24" fill="none" xmlns="http://www.w3.org/2000/svg">
<path d="M4.5 21C3.94775 21 3.5 20.5522 3.5 20V4C3.5 3.44775 3.94775 3 4.5 3C5.05225 3 5.5 3.44775 5.5 4V20C5.5 20.5522 5.05225 21 4.5 21Z" fill="url(#paint0_linear_4310_9457)"/>
<path d="M20.9999 5.5V16.5C20.9999 16.775 20.7749 17 20.4999 17H11.4999C11.3499 17 11.2049 16.93 11.1099 16.81C11.015 16.695 10.98 16.54 11.0099 16.39L13.5099 5.39C13.5649 5.16 13.7649 5 13.9999 5H20.4999C20.7749 5 20.9999 5.225 20.9999 5.5Z" fill="url(#paint1_linear_4310_9457)"/>
<path d="M14.66 4.83L12.44 14.61C12.39 14.84 12.19 15 11.955 15H7C6.725 15 6.5 14.775 6.5 14.5V3.5C6.5 3.225 6.725 3 7 3H13.2C13.655 3 14.085 3.205 14.37 3.565C14.655 3.92 14.765 4.385 14.66 4.83Z" fill="url(#paint2_linear_4310_9457)"/>
<defs>
<linearGradient id="paint0_linear_4310_9457" x1="4.5" y1="21" x2="4.5" y2="3" gradientUnits="userSpaceOnUse">
<stop stop-color="#1F7CF9"/>
<stop offset="0.9944" stop-color="#00B4FF"/>
</linearGradient>
<linearGradient id="paint1_linear_4310_9457" x1="10.9994" y1="11" x2="20.9999" y2="11" gradientUnits="userSpaceOnUse">
<stop stop-color="#E24429"/>
<stop offset="1" stop-color="#FF872F"/>
</linearGradient>
<linearGradient id="paint2_linear_4310_9457" x1="6.191" y1="14.184" x2="12.9175" y2="3.5735" gradientUnits="userSpaceOnUse">
<stop stop-color="#E24429"/>
<stop offset="1" stop-color="#FF872F"/>
</linearGradient>
</defs>
</svg>
