<svg width="24" height="24" viewBox="0 0 24 24" fill="none" xmlns="http://www.w3.org/2000/svg">
<path d="M16.8758 20.9337H4.04371C2.93162 20.9337 2.13962 19.8504 2.48022 18.7916L3.83032 14.5731C4.2653 13.2189 5.74672 12.5172 7.06809 13.0301C7.94626 13.3707 9.07476 13.6375 10.4577 13.6375C11.8406 13.6375 12.9691 13.3707 13.8473 13.0301C14.6147 12.7347 15.4354 12.8455 16.0715 13.2517L15.6734 13.6498C15.263 14.0601 15.0332 14.61 15.0332 15.1886C15.0332 15.7673 15.2589 16.3171 15.6734 16.7316C16.0838 17.142 16.6337 17.3718 17.2123 17.3718C17.4626 17.3718 17.7088 17.3307 17.9386 17.2487L18.431 18.7916C18.7799 19.8504 17.992 20.9337 16.8758 20.9337ZM10.4618 3.59998C8.12682 3.59998 6.23095 5.49585 6.23095 7.83082C6.23095 10.1658 8.12682 12.0617 10.4618 12.0617C12.7968 12.0617 14.6926 10.1658 14.6926 7.83082C14.6926 5.49585 12.7968 3.59998 10.4618 3.59998ZM20.487 10.0016L19.3338 11.1548L18.1807 10.0016C17.6514 9.47227 16.7896 9.47227 16.2602 10.0016C15.7309 10.531 15.7309 11.3928 16.2602 11.9221L17.4133 13.0753L16.2561 14.2325C15.7268 14.7619 15.7268 15.6236 16.2561 16.153C16.7855 16.6824 17.6473 16.6824 18.1766 16.153L19.3297 14.9999L20.4829 16.153C21.0122 16.6824 21.874 16.6824 22.4034 16.153C22.9327 15.6236 22.9327 14.7619 22.4034 14.2325L21.2502 13.0794L22.4034 11.9262C22.9327 11.3969 22.9327 10.5351 22.4034 10.0057C21.8781 9.47227 21.0163 9.47227 20.487 10.0016Z" fill="url(#paint0_linear_4311_12367)"/>
<defs>
<linearGradient id="paint0_linear_4311_12367" x1="4.86378" y1="7.44541" x2="17.9891" y2="20.5707" gradientUnits="userSpaceOnUse">
<stop stop-color="#64B5F6"/>
<stop offset="1" stop-color="#1976D2"/>
</linearGradient>
</defs>
</svg>
