<svg width="24" height="24" viewBox="0 0 24 24" fill="none" xmlns="http://www.w3.org/2000/svg">
<path d="M12.5817 16.2186C12.1568 18.5023 13.5816 20.8012 15.8198 21.4327C18.0636 22.0592 20.4787 20.8416 21.3073 18.669C21.4993 18.1537 21.6003 17.603 21.6003 17.0522C21.6003 14.7382 19.7815 12.7374 17.4725 12.5252C15.1635 12.313 13.0061 13.9349 12.5817 16.2186ZM15.2645 15.9811C14.8048 15.5213 15.5222 14.8039 15.982 15.2637L17.0531 16.3398L18.1242 15.2637C18.584 14.8039 19.3015 15.5213 18.8417 15.9811L17.7655 17.0522L18.8417 18.1234C19.3015 18.5831 18.584 19.3006 18.1242 18.8408L17.0531 17.7646L15.982 18.8408C15.5222 19.3006 14.8048 18.5831 15.2645 18.1234L16.3407 17.0522L15.2645 15.9811Z" fill="url(#paint0_linear_4310_9521)"/>
<path d="M3.61755 20.9677C6.89659 21.6245 10.261 21.771 13.5855 21.3972C10.6703 19.073 10.8926 14.4399 14.0049 12.4038C13.7376 12.2623 13.4648 12.1461 13.1763 12.0451C11.1098 11.3125 8.84634 11.3125 6.77988 12.0451C4.15311 12.9697 2.3999 15.4504 2.3999 18.2343V19.4823C2.3999 20.2048 2.9102 20.8262 3.61755 20.9677Z" fill="url(#paint1_linear_4310_9521)"/>
<path d="M9.97898 10.4838C12.1819 10.4838 14.0209 8.64474 14.0209 6.44187C14.0209 4.239 12.1819 2.3999 9.97898 2.3999C7.77611 2.3999 5.93701 4.239 5.93701 6.44187C5.93701 8.64474 7.77611 10.4838 9.97898 10.4838Z" fill="url(#paint2_linear_4310_9521)"/>
<defs>
<linearGradient id="paint0_linear_4310_9521" x1="17.0536" y1="28.1677" x2="17.0536" y2="-4.16809" gradientUnits="userSpaceOnUse">
<stop stop-color="#FEDBB8"/>
<stop offset="1" stop-color="#F41D65"/>
</linearGradient>
<linearGradient id="paint1_linear_4310_9521" x1="8.20215" y1="28.1675" x2="8.20215" y2="-4.16828" gradientUnits="userSpaceOnUse">
<stop stop-color="#FEDBB8"/>
<stop offset="1" stop-color="#F41D65"/>
</linearGradient>
<linearGradient id="paint2_linear_4310_9521" x1="9.97898" y1="28.1675" x2="9.97898" y2="-4.1683" gradientUnits="userSpaceOnUse">
<stop stop-color="#FEDBB8"/>
<stop offset="1" stop-color="#F41D65"/>
</linearGradient>
</defs>
</svg>
