<svg width="14" height="16" viewBox="0 0 14 16" fill="none" xmlns="http://www.w3.org/2000/svg">
<path fill-rule="evenodd" clip-rule="evenodd" d="M9.75 3.75C9.75 5.26878 8.51878 6.5 7 6.5C5.48122 6.5 4.25 5.26878 4.25 3.75C4.25 2.23122 5.48122 1 7 1C8.51878 1 9.75 2.23122 9.75 3.75Z" stroke="#72A834" stroke-width="1.3" stroke-linecap="round" stroke-linejoin="round"/>
<path d="M2.14971 11.7368C2.13907 11.378 1.83955 11.0958 1.48072 11.1064C1.12189 11.1171 0.839638 11.4166 0.850286 11.7754L2.14971 11.7368ZM4.885 14.9501V14.3001C4.87885 14.3001 4.8727 14.3002 4.86655 14.3004L4.885 14.9501ZM9.115 14.9501L9.13345 14.3004C9.1273 14.3002 9.12115 14.3001 9.115 14.3001V14.9501ZM13.1497 11.7754C13.1604 11.4166 12.8781 11.1171 12.5193 11.1064C12.1605 11.0958 11.8609 11.378 11.8503 11.7368L13.1497 11.7754ZM11.8503 11.6304C11.8609 11.9892 12.1605 12.2715 12.5193 12.2608C12.8781 12.2502 13.1604 11.9507 13.1497 11.5918L11.8503 11.6304ZM9.115 8.41712V9.06712C9.12115 9.06712 9.1273 9.06704 9.13345 9.06686L9.115 8.41712ZM4.885 8.41712L4.86655 9.06686C4.8727 9.06704 4.87885 9.06712 4.885 9.06712V8.41712ZM0.850286 11.5918C0.839638 11.9507 1.12189 12.2502 1.48072 12.2608C1.83955 12.2715 2.13907 11.9892 2.14971 11.6304L0.850286 11.5918ZM0.850286 11.7754C0.914819 13.9501 2.72864 15.6616 4.90345 15.5999L4.86655 14.3004C3.40878 14.3418 2.19297 13.1946 2.14971 11.7368L0.850286 11.7754ZM4.885 15.6001H9.115V14.3001H4.885V15.6001ZM9.09655 15.5999C11.2714 15.6616 13.0852 13.9501 13.1497 11.7754L11.8503 11.7368C11.807 13.1946 10.5912 14.3418 9.13345 14.3004L9.09655 15.5999ZM13.1497 11.5918C13.0852 9.41712 11.2714 7.70564 9.09655 7.76739L9.13345 9.06686C10.5912 9.02548 11.807 10.1727 11.8503 11.6304L13.1497 11.5918ZM9.115 7.76712H4.885V9.06712H9.115V7.76712ZM4.90345 7.76739C2.72864 7.70564 0.914819 9.41712 0.850286 11.5918L2.14971 11.6304C2.19297 10.1727 3.40878 9.02548 4.86655 9.06686L4.90345 7.76739Z" fill="#72A834"/>
</svg>
