<svg xmlns="http://www.w3.org/2000/svg" xmlns:xlink="http://www.w3.org/1999/xlink" version="1.1" width="256" height="256" viewBox="0 0 256 256" xml:space="preserve">
<g style="stroke: none; stroke-width: 0; stroke-dasharray: none; stroke-linecap: butt; stroke-linejoin: miter; stroke-miterlimit: 10; fill: none; fill-rule: nonzero; opacity: 1;" transform="translate(1.4065934065934016 1.4065934065934016) scale(2.81 2.81)">
	<path d="M 61.438 71.911 H 8.039 C 4.151 71.911 1 68.76 1 64.873 V 25.127 c 0 -3.887 3.151 -7.039 7.039 -7.039 h 53.399 c 3.887 0 7.039 3.151 7.039 7.039 v 39.746 C 68.477 68.76 65.325 71.911 61.438 71.911 z" style="stroke: none; stroke-width: 1; stroke-dasharray: none; stroke-linecap: butt; stroke-linejoin: miter; stroke-miterlimit: 10; fill: rgb(209,67,67); fill-rule: nonzero; opacity: 1;" transform=" matrix(1 0 0 1 0 0) " stroke-linecap="round"/>
	<path d="M 86.087 63.852 l -17.61 -7.87 V 34.018 l 17.61 -7.87 C 87.456 25.536 89 26.538 89 28.037 v 33.926 C 89 63.462 87.456 64.464 86.087 63.852 z" style="stroke: none; stroke-width: 1; stroke-dasharray: none; stroke-linecap: butt; stroke-linejoin: miter; stroke-miterlimit: 10; fill: rgb(178,59,59); fill-rule: nonzero; opacity: 1;" transform=" matrix(1 0 0 1 0 0) " stroke-linecap="round"/>
	<circle cx="34.766999999999996" cy="44.997" r="10.457" style="stroke: none; stroke-width: 1; stroke-dasharray: none; stroke-linecap: butt; stroke-linejoin: miter; stroke-miterlimit: 10; fill: rgb(254,254,254); fill-rule: nonzero; opacity: 1;" transform="  matrix(1 0 0 1 0 0) "/>
	<path d="M 61.438 72.911 H 8.039 C 3.606 72.911 0 69.306 0 64.873 V 25.127 c 0 -4.433 3.606 -8.039 8.039 -8.039 h 53.399 c 4.433 0 8.039 3.606 8.039 8.039 v 39.746 C 69.477 69.306 65.87 72.911 61.438 72.911 z M 8.039 19.088 C 4.709 19.088 2 21.797 2 25.127 v 39.746 c 0 3.329 2.709 6.038 6.039 6.038 h 53.399 c 3.33 0 6.039 -2.709 6.039 -6.038 V 25.127 c 0 -3.33 -2.709 -6.039 -6.039 -6.039 H 8.039 z" style="stroke: none; stroke-width: 1; stroke-dasharray: none; stroke-linecap: butt; stroke-linejoin: miter; stroke-miterlimit: 10; fill: rgb(0,0,0); fill-rule: nonzero; opacity: 1;" transform=" matrix(1 0 0 1 0 0) " stroke-linecap="round"/>
	<path d="M 86.933 65.033 c -0.425 0 -0.852 -0.089 -1.254 -0.269 l -17.61 -7.87 c -0.36 -0.161 -0.592 -0.519 -0.592 -0.913 V 34.019 c 0 -0.395 0.231 -0.752 0.592 -0.913 l 17.61 -7.871 c 0.953 -0.426 2.045 -0.342 2.922 0.228 C 89.477 26.03 90 26.993 90 28.037 v 33.926 c 0 1.045 -0.523 2.008 -1.4 2.575 C 88.094 64.866 87.515 65.033 86.933 65.033 z M 69.477 55.333 l 17.019 7.605 l 0 0 c 0.336 0.152 0.707 0.122 1.018 -0.078 C 87.822 62.659 88 62.332 88 61.963 V 28.037 c 0 -0.369 -0.178 -0.696 -0.487 -0.897 c -0.311 -0.201 -0.681 -0.231 -1.018 -0.079 l -17.019 7.606 V 55.333 z" style="stroke: none; stroke-width: 1; stroke-dasharray: none; stroke-linecap: butt; stroke-linejoin: miter; stroke-miterlimit: 10; fill: rgb(0,0,0); fill-rule: nonzero; opacity: 1;" transform=" matrix(1 0 0 1 0 0) " stroke-linecap="round"/>
	<path d="M 34.769 56.456 c -6.317 0 -11.457 -5.14 -11.457 -11.456 c 0 -6.317 5.139 -11.457 11.457 -11.457 S 46.225 38.683 46.225 45 C 46.225 51.316 41.086 56.456 34.769 56.456 z M 34.769 35.543 c -5.214 0 -9.457 4.242 -9.457 9.457 c 0 5.214 4.242 9.456 9.457 9.456 s 9.457 -4.242 9.457 -9.456 C 44.225 39.786 39.983 35.543 34.769 35.543 z" style="stroke: none; stroke-width: 1; stroke-dasharray: none; stroke-linecap: butt; stroke-linejoin: miter; stroke-miterlimit: 10; fill: rgb(0,0,0); fill-rule: nonzero; opacity: 1;" transform=" matrix(1 0 0 1 0 0) " stroke-linecap="round"/>
</g>
</svg>